<?xml version="1.0" standalone="no"?>
<!DOCTYPE svg PUBLIC "-//W3C//DTD SVG 1.1//EN" "http://www.w3.org/Graphics/SVG/1.1/DTD/svg11.dtd">

<svg width="135" height="50" viewBox="0 0 135 50" 
  xmlns="http://www.w3.org/2000/svg"
  xmlns:xlink="http://www.w3.org/1999/xlink">


<polyline points="0.0, 41.51208520476953 0.7988165680473372, 42.883130598112565 1.5976331360946745, 44.901163730557144 2.396449704142012, 42.387017441677614 3.195266272189349, 41.48412166030826 3.994082840236686, 37.961082620196734 4.792899408284024, 37.23068909371272 5.591715976331361, 34.498702657307156 6.390532544378698, 30.44309317480261 7.189349112426036, 30.161398483324092 7.988165680473372, 29.269447393962455 8.78698224852071, 30.64800517261288 9.585798816568047, 32.188061107295134 10.384615384615385, 29.094678043577787 11.183431952662723, 28.90908335450637 11.982248520710058, 29.852781725906212 12.781065088757396, 30.788678506107143 13.579881656804734, 32.36708662685609 14.378698224852071, 29.971235390318274 15.177514792899409, 32.896102175756745 15.976331360946745, 39.73721477974355 16.775147928994084, 40.724524769563516 17.57396449704142, 42.382926163555545 18.37278106508876, 48.78278740916561 19.171597633136095, 49.53097852182368 19.970414201183434, 50.0 20.76923076923077, 45.394308580498546 21.56804733727811, 45.85325466030786 22.366863905325445, 43.05100727076707 23.16568047337278, 36.39290864139825 23.964497041420117, 37.06017846046776 24.763313609467456, 39.68678075769092 25.562130177514792, 41.351344345555965 26.36094674556213, 41.075033748643 27.159763313609467, 38.71776259262857 27.958579881656807, 42.33623462855015 28.757396449704142, 42.11011873317969 29.55621301775148, 43.65121168637218 30.355029585798817, 39.01643178278142 31.153846153846157, 35.28445628127289 31.95266272189349, 29.733792660112606 32.751479289940825, 33.26727829074462 33.55029585798817, 30.57600944854967 34.349112426035504, 32.6389829797343 35.14792899408284, 38.41839668958373 35.94674556213018, 37.24109684118685 36.74556213017752, 36.1250390423501 37.54437869822485, 37.10335707444562 38.34319526627219, 37.17006842437301 39.142011834319526, 33.11203835179488 39.94082840236687, 35.216690962009125 40.7396449704142, 33.797694911529426 41.53846153846154, 34.72652394817588 42.337278106508876, 30.99972445862048 43.13609467455622, 29.727361621893643 43.93491124260355, 32.30166068056153 44.73372781065089, 34.098257528052315 45.532544378698226, 34.45682599437163 46.33136094674556, 38.394783152122194 47.1301775147929, 37.72961874917701 47.928994082840234, 45.79072968723737 48.72781065088758, 43.115720307097995 49.52662721893491, 43.01062216461634 50.32544378698225, 41.480571827541254 51.124260355029584, 39.98277554986286 51.92307692307693, 37.20009239756187 52.72189349112426, 38.027493007635 53.5207100591716, 35.89072355444849 54.319526627218934, 43.07447148649845 55.11834319526627, 45.83206012310814 55.91715976331361, 44.638752680029256 56.71597633136094, 44.3499742505088 57.514792899408285, 43.660327798255885 58.31360946745562, 32.45777547424483 59.11242603550296, 31.19049710445824 59.91124260355029, 35.965202412931085 60.710059171597635, 36.56600136501929 61.50887573964497, 39.63448887438833 62.307692307692314, 40.8682450713109 63.10650887573964, 37.56116632952333 63.90532544378698, 33.880122531027 64.70414201183432, 27.959794130276332 65.50295857988165, 33.47455915407038 66.30177514792899, 40.46267593798005 67.10059171597634, 40.739453228691616 67.89940828402366, 37.291114888344936 68.69822485207101, 32.85532450725398 69.49704142011834, 32.30387136357227 70.29585798816568, 29.420303930196702 71.09467455621302, 29.724610419791365 71.89349112426036, 21.837904452849447 72.6923076923077, 11.376581446414487 73.49112426035504, 22.728940407600106 74.28994082840237, 21.37310300264586 75.0887573964497, 23.28557499530954 75.88757396449704, 27.894692845992896 76.68639053254438, 27.324295250697546 77.48520710059172, 29.365716207927374 78.28402366863905, 30.08241886261793 79.0828402366864, 30.54280312514902 79.88165680473374, 31.824386779715176 80.68047337278107, 31.009539965678606 81.4792899408284, 27.307428215475007 82.27810650887574, 26.769075557846016 83.07692307692308, 27.709058925094492 83.87573964497041, 22.282054422384796 84.67455621301775, 20.251578325611312 85.4733727810651, 21.371516946224702 86.27218934911244, 13.390489777833888 87.07100591715975, 6.491082498860861 87.8698224852071, 4.9692780919293575 88.66863905325444, 7.70014635267904 89.46745562130178, 17.704012981878016 90.26627218934911, 6.5239301496657935 91.06508875739645, 10.353756337875456 91.8639053254438, 9.864893653415992 92.66272189349112, 26.094879513492703 93.46153846153845, 22.62815364853659 94.2603550295858, 21.289188202956552 95.05917159763314, 19.866824029551715 95.85798816568047, 20.643571330840185 96.65680473372781, 23.518818725809357 97.45562130177515, 21.80860464948775 98.2544378698225, 21.515140245821947 99.05325443786982, 21.495113259112735 99.85207100591715, 17.2671423739656 100.6508875739645, 17.003193457369733 101.44970414201183, 18.5765071628994 102.24852071005917, 19.836476509455444 103.04733727810651, 22.396557485248653 103.84615384615385, 21.113127133593384 104.64497041420118, 21.403321337548117 105.44378698224853, 18.984962863927194 106.24260355029585, 16.29017724620658 107.0414201183432, 17.768794894462403 107.84023668639053, 16.042393032108777 108.63905325443787, 10.484129144842443 109.43786982248521, 10.119400813534652 110.23668639053254, 9.489624108755368 111.03550295857988, 6.088309131531057 111.83431952662723, 10.248223898542626 112.63313609467457, 11.669311274389681 113.43195266272188, 13.602831099011818 114.23076923076923, 12.444875193505213 115.02958579881657, 0.0 115.82840236686391, 10.112700600894662 116.62721893491124, 11.800672580235252 117.42603550295858, 12.844857778931019 118.22485207100593, 12.764006325810728 119.02366863905324, 12.093816249946626 119.82248520710058, 13.264737361269205 120.62130177514793, 10.480780332644901 121.42011834319527, 14.70107705464584 122.2189349112426, 14.176528403482413 123.01775147928994, 12.68864771312802 123.81656804733728, 12.377683900644936 124.61538461538463, 11.473929602835561 125.41420118343194, 10.060616060304332 126.21301775147928, 16.329475726456508 127.01183431952663, 18.740616301383824 127.81065088757396, 28.66138317544954 128.60946745562129, 23.910258462906718 129.40828402366864, 19.435850529639794 130.20710059171597, 23.869771819832682 131.0059171597633, 17.257128515641458 131.80473372781066, 15.953815109288543 132.60355029585799, 14.001281351421872 133.40236686390534, 15.145210536384448 134.20118343195267, 11.38900080905188" fill="none" stroke="#57bd0f" stroke-width="1.25"/>

</svg>