<?xml version="1.0" standalone="no"?>
<!DOCTYPE svg PUBLIC "-//W3C//DTD SVG 1.1//EN" "http://www.w3.org/Graphics/SVG/1.1/DTD/svg11.dtd">

<svg width="135" height="50" viewBox="0 0 135 50" 
  xmlns="http://www.w3.org/2000/svg"
  xmlns:xlink="http://www.w3.org/1999/xlink">


<polyline points="0.0, 42.32104327900764 0.7988165680473372, 40.55622471035362 1.5976331360946745, 40.75972582513667 2.396449704142012, 39.27109517957504 3.195266272189349, 40.28039483282291 3.994082840236686, 41.31094575547266 4.792899408284024, 36.255001494061354 5.591715976331361, 36.407479408012215 6.390532544378698, 36.31834460027268 7.189349112426036, 39.430130320713694 7.988165680473372, 42.502476528319434 8.78698224852071, 42.526558963673 9.585798816568047, 43.97004284581443 10.384615384615385, 42.90792439471509 11.183431952662723, 43.43085487173591 11.982248520710058, 42.36677762843427 12.781065088757396, 41.50467500640017 13.579881656804734, 44.97435777385135 14.378698224852071, 44.36057133356984 15.177514792899409, 41.295908056474545 15.976331360946745, 40.77237113309936 16.775147928994084, 41.41020070535394 17.57396449704142, 42.434963649273776 18.37278106508876, 41.80342228794916 19.171597633136095, 42.95888917202631 19.970414201183434, 44.9745714643761 20.76923076923077, 41.808420317849624 21.56804733727811, 41.35060500170314 22.366863905325445, 39.836254125148656 23.16568047337278, 40.08372654332345 23.964497041420117, 40.92998205503649 24.763313609467456, 41.40550485674854 25.562130177514792, 40.39815998485498 26.36094674556213, 36.832353231303806 27.159763313609467, 37.119052072165566 27.958579881656807, 39.305764089594106 28.757396449704142, 37.09123974382284 29.55621301775148, 37.91848999184496 30.355029585798817, 36.91294143483888 31.153846153846157, 36.83703269126727 31.95266272189349, 36.30196863856428 32.751479289940825, 35.581481603760224 33.55029585798817, 38.273434434643725 34.349112426035504, 41.365912961051016 35.14792899408284, 43.31726490507055 35.94674556213018, 41.364255523606055 36.74556213017752, 41.45105894057848 37.54437869822485, 42.43130585554331 38.34319526627219, 42.72708285564605 39.142011834319526, 44.720997983338215 39.94082840236687, 45.045864441800695 40.7396449704142, 47.21714847308487 41.53846153846154, 47.77793341482771 42.337278106508876, 48.3423042618886 43.13609467455622, 48.21872359978537 43.93491124260355, 46.7057340228185 44.73372781065089, 50.0 45.532544378698226, 48.51443381605351 46.33136094674556, 48.525369323000994 47.1301775147929, 48.22882897947959 47.928994082840234, 48.215915606619205 48.72781065088758, 49.99745182040753 49.52662721893491, 48.313718916883694 50.32544378698225, 49.220249997645595 51.124260355029584, 48.443957869052255 51.92307692307693, 46.82301024937169 52.72189349112426, 45.645559778364095 53.5207100591716, 41.94165260059428 54.319526627218934, 41.98181428032152 55.11834319526627, 43.53630798875445 55.91715976331361, 45.97028978164556 56.71597633136094, 48.74700637575279 57.514792899408285, 48.34463546476164 58.31360946745562, 47.55584537502096 59.11242603550296, 45.951234337305415 59.91124260355029, 46.02346287432294 60.710059171597635, 46.42913160936791 61.50887573964497, 48.844104549127195 62.307692307692314, 48.29093166519979 63.10650887573964, 47.80382937593922 63.90532544378698, 46.33948209081576 64.70414201183432, 47.83250216310856 65.50295857988165, 47.46356628314573 66.30177514792899, 46.586998489046614 67.10059171597634, 45.984269166549566 67.89940828402366, 45.94022334882092 68.69822485207101, 44.82755339144837 69.49704142011834, 44.31463022147422 70.29585798816568, 46.06310355455416 71.09467455621302, 44.956837203652746 71.89349112426036, 45.13456946919139 72.6923076923077, 45.606786336803076 73.49112426035504, 44.94078592333814 74.28994082840237, 47.21277407044248 75.0887573964497, 48.55152551149345 75.88757396449704, 47.627992795544586 76.68639053254438, 46.25488383852524 77.48520710059172, 46.8168196894773 78.28402366863905, 46.70762472415201 79.0828402366864, 47.46316527372307 79.88165680473374, 47.13057660960715 80.68047337278107, 45.747307583760886 81.4792899408284, 46.885570213806155 82.27810650887574, 44.507957491776544 83.07692307692308, 44.04089572892616 83.87573964497041, 43.24188885537217 84.67455621301775, 43.76809152673079 85.4733727810651, 40.20304146207781 86.27218934911244, 40.47478290573612 87.07100591715975, 39.75423237511039 87.8698224852071, 40.26773049482632 88.66863905325444, 40.41090334722192 89.46745562130178, 38.99399433769267 90.26627218934911, 38.36154193186699 91.06508875739645, 38.87344224941355 91.8639053254438, 38.49715908758581 92.66272189349112, 39.13425621002841 93.46153846153845, 39.562206326288916 94.2603550295858, 38.20529193275141 95.05917159763314, 36.653582142918644 95.85798816568047, 38.551351855869875 96.65680473372781, 38.758904016416274 97.45562130177515, 39.55570904862268 98.2544378698225, 40.55639816032588 99.05325443786982, 40.23635105679555 99.85207100591715, 37.62361490195184 100.6508875739645, 34.613023073035784 101.44970414201183, 35.89173282355297 102.24852071005917, 38.14236926923849 103.04733727810651, 38.49082044204699 103.84615384615385, 38.32204993820951 104.64497041420118, 35.315403714638485 105.44378698224853, 33.27828764683284 106.24260355029585, 34.5492586309675 107.0414201183432, 33.216884358073465 107.84023668639053, 29.80575227209635 108.63905325443787, 30.262254169838965 109.43786982248521, 30.792111284267097 110.23668639053254, 29.23663747193106 111.03550295857988, 24.712884607254402 111.83431952662723, 27.59137337249897 112.63313609467457, 29.30202197037965 113.43195266272188, 30.02591041699379 114.23076923076923, 29.74730117508392 115.02958579881657, 29.400006418240626 115.82840236686391, 29.498678382200126 116.62721893491124, 30.35304425076269 117.42603550295858, 28.759208591077197 118.22485207100593, 26.010152519112783 119.02366863905324, 26.357220926240426 119.82248520710058, 23.781456739285765 120.62130177514793, 25.543878772865327 121.42011834319527, 24.973011597159196 122.2189349112426, 24.906404592528293 123.01775147928994, 24.366705460009747 123.81656804733728, 20.709035810765705 124.61538461538463, 15.577562971256832 125.41420118343194, 12.423478511106854 126.21301775147928, 14.155613763541083 127.01183431952663, 15.531938060415488 127.81065088757396, 14.269753099116967 128.60946745562129, 10.043260110632342 129.40828402366864, 3.338196513515341 130.20710059171597, 1.139360481694169 131.0059171597633, 2.582197888264628 131.80473372781066, 0.0 132.60355029585799, 2.075031288423457 133.40236686390534, 0.5933633723136194 134.20118343195267, 1.1684395470637476" fill="none" stroke="#57bd0f" stroke-width="1.25"/>

</svg>