<?xml version="1.0" standalone="no"?>
<!DOCTYPE svg PUBLIC "-//W3C//DTD SVG 1.1//EN" "http://www.w3.org/Graphics/SVG/1.1/DTD/svg11.dtd">

<svg width="135" height="50" viewBox="0 0 135 50" 
  xmlns="http://www.w3.org/2000/svg"
  xmlns:xlink="http://www.w3.org/1999/xlink">


<polyline points="0.0, 31.70888365889612 0.7988165680473372, 31.924817257120836 1.5976331360946745, 33.09342811528446 2.396449704142012, 33.48046707754605 3.195266272189349, 34.30775180298279 3.994082840236686, 35.30641292681571 4.792899408284024, 34.00014665561473 5.591715976331361, 35.80248892165118 6.390532544378698, 33.95481791416852 7.189349112426036, 35.30217908470789 7.988165680473372, 36.445169581278556 8.78698224852071, 37.86646382028422 9.585798816568047, 37.34218547915446 10.384615384615385, 37.14090281052507 11.183431952662723, 37.359841523551765 11.982248520710058, 35.359779801352566 12.781065088757396, 35.32158046498599 13.579881656804734, 37.66516590398759 14.378698224852071, 37.12266007267041 15.177514792899409, 35.65496317753276 15.976331360946745, 35.01264331401218 16.775147928994084, 35.00978260664266 17.57396449704142, 35.6221416945104 18.37278106508876, 36.69306147269319 19.171597633136095, 37.53559310311857 19.970414201183434, 39.83028710864327 20.76923076923077, 39.455331782282 21.56804733727811, 36.90225690340514 22.366863905325445, 33.8143760532488 23.16568047337278, 36.0373865631502 23.964497041420117, 34.858513240623765 24.763313609467456, 35.776001804389935 25.562130177514792, 36.176684905226544 26.36094674556213, 35.032610800506184 27.159763313609467, 35.67711999638514 27.958579881656807, 30.515905315471166 28.757396449704142, 33.41150064397778 29.55621301775148, 35.04059547515403 30.355029585798817, 34.74863371574669 31.153846153846157, 31.814213262249652 31.95266272189349, 30.68358522654364 32.751479289940825, 31.12444985039058 33.55029585798817, 29.796573663145505 34.349112426035504, 31.72497215667121 35.14792899408284, 32.17857046264428 35.94674556213018, 32.7633560443155 36.74556213017752, 31.55241995656214 37.54437869822485, 32.68559000560863 38.34319526627219, 32.00079541814845 39.142011834319526, 34.4945351157399 39.94082840236687, 34.976923062249696 40.7396449704142, 35.46528991666148 41.53846153846154, 36.77828124618963 42.337278106508876, 38.365976186691036 43.13609467455622, 36.838527367450375 43.93491124260355, 34.42228813314707 44.73372781065089, 45.95081638597087 45.532544378698226, 46.11168656916888 46.33136094674556, 47.01226979000606 47.1301775147929, 46.32824438603204 47.928994082840234, 47.619098106686394 48.72781065088758, 48.81718242728726 49.52662721893491, 46.938507759504425 50.32544378698225, 43.3206213023377 51.124260355029584, 44.53352703053214 51.92307692307693, 44.93412360772184 52.72189349112426, 45.10404880739419 53.5207100591716, 42.02424271457416 54.319526627218934, 42.165277177965535 55.11834319526627, 43.36402838982566 55.91715976331361, 46.85262618008257 56.71597633136094, 44.1052099140436 57.514792899408285, 41.263449166294656 58.31360946745562, 43.96870476025164 59.11242603550296, 43.072412498865354 59.91124260355029, 43.549331896286795 60.710059171597635, 43.71241182017515 61.50887573964497, 48.931100823499904 62.307692307692314, 48.35175699845174 63.10650887573964, 46.829174896211676 63.90532544378698, 45.828708257144086 64.70414201183432, 46.22905173898989 65.50295857988165, 46.09454623264764 66.30177514792899, 45.13879427003192 67.10059171597634, 46.1853358233332 67.89940828402366, 46.76953363097136 68.69822485207101, 44.09514878215195 69.49704142011834, 43.23192593382445 70.29585798816568, 45.35546362687749 71.09467455621302, 45.00705319248057 71.89349112426036, 44.86892298657344 72.6923076923077, 44.60487261400101 73.49112426035504, 45.20742951855845 74.28994082840237, 45.39226919108655 75.0887573964497, 46.37424662172302 75.88757396449704, 46.91316438024027 76.68639053254438, 47.53601211693624 77.48520710059172, 47.675683618428096 78.28402366863905, 50.0 79.0828402366864, 48.65714735619111 79.88165680473374, 46.77749030430458 80.68047337278107, 46.42527403834938 81.4792899408284, 46.64479418652592 82.27810650887574, 46.67458560797133 83.07692307692308, 47.32016894596279 83.87573964497041, 46.86512838353257 84.67455621301775, 48.09421551526704 85.4733727810651, 43.98690861072675 86.27218934911244, 33.457025307189966 87.07100591715975, 34.3750779594577 87.8698224852071, 36.87083096326841 88.66863905325444, 36.77268161478671 89.46745562130178, 38.461446325029854 90.26627218934911, 37.427077602091344 91.06508875739645, 34.91627975988959 91.8639053254438, 28.718778008661673 92.66272189349112, 35.88255008716982 93.46153846153845, 34.406828497229455 94.2603550295858, 32.11188284048654 95.05917159763314, 31.844601124206733 95.85798816568047, 29.94279302605827 96.65680473372781, 30.976900580075156 97.45562130177515, 31.69781326986993 98.2544378698225, 33.15622066669556 99.05325443786982, 33.59961969949384 99.85207100591715, 32.754940036650794 100.6508875739645, 27.36592047067567 101.44970414201183, 28.101682872629947 102.24852071005917, 26.27362332879624 103.04733727810651, 24.088396067168098 103.84615384615385, 19.56024807532353 104.64497041420118, 15.641916377959042 105.44378698224853, 19.065708869765167 106.24260355029585, 23.02833031915606 107.0414201183432, 23.18397604244501 107.84023668639053, 17.936423022832315 108.63905325443787, 15.55902884910432 109.43786982248521, 16.637403549020803 110.23668639053254, 16.644108924711382 111.03550295857988, 19.116981712115763 111.83431952662723, 21.372908529183533 112.63313609467457, 19.873987320099445 113.43195266272188, 20.049381666034492 114.23076923076923, 19.84280215240689 115.02958579881657, 18.575293418491704 115.82840236686391, 21.657389080665553 116.62721893491124, 20.87749645887847 117.42603550295858, 21.71656658771893 118.22485207100593, 21.24936095557935 119.02366863905324, 19.067889102525008 119.82248520710058, 14.58121606549623 120.62130177514793, 16.929761285283508 121.42011834319527, 17.3526745279938 122.2189349112426, 18.01746324692681 123.01775147928994, 16.599828512858164 123.81656804733728, 18.321149335578728 124.61538461538463, 16.84514122739919 125.41420118343194, 15.026846817177278 126.21301775147928, 16.316620262762246 127.01183431952663, 19.661412818793764 127.81065088757396, 16.974901266673697 128.60946745562129, 5.9666039135615625 129.40828402366864, 0.0 130.20710059171597, 4.319099088415718 131.0059171597633, 1.1113183745750161 131.80473372781066, 2.105949982717961 132.60355029585799, 3.416004138076407 133.40236686390534, 4.537615698403482 134.20118343195267, 14.629979468531848" fill="none" stroke="#57bd0f" stroke-width="1.25"/>

</svg>