<?xml version="1.0" standalone="no"?>
<!DOCTYPE svg PUBLIC "-//W3C//DTD SVG 1.1//EN" "http://www.w3.org/Graphics/SVG/1.1/DTD/svg11.dtd">

<svg width="135" height="50" viewBox="0 0 135 50" 
  xmlns="http://www.w3.org/2000/svg"
  xmlns:xlink="http://www.w3.org/1999/xlink">


<polyline points="0.0, 7.530263233601817 0.8035714285714285, 5.873031526551524 1.607142857142857, 2.203927299421666 2.4107142857142856, 2.625207357176192 3.214285714285714, 4.472119604961666 4.017857142857142, 1.5193104498488081 4.821428571428571, 1.231578854030775 5.625, 0.0 6.428571428571428, 7.230989213683727 7.232142857142857, 13.077963874114056 8.035714285714285, 15.667771213623952 8.839285714285715, 17.16187680749987 9.642857142857142, 19.662886505512198 10.446428571428571, 21.579502968902258 11.25, 18.583056704392437 12.053571428571429, 20.398384865728243 12.857142857142856, 24.885338663740956 13.660714285714286, 24.946387788907764 14.464285714285714, 23.219495008720546 15.267857142857142, 22.6732193181017 16.07142857142857, 22.62127370392767 16.875, 23.7807332942532 17.67857142857143, 23.54804445660524 18.482142857142858, 26.11326207573745 19.285714285714285, 28.547579976665272 20.089285714285715, 24.890157420731065 20.892857142857142, 26.23759912855804 21.696428571428573, 24.710972044226974 22.5, 25.43605973671847 23.303571428571427, 27.61709102450328 24.107142857142858, 31.126679364577786 24.91071428571429, 31.408393793728393 25.71428571428571, 27.25971961993788 26.517857142857142, 28.46366779725492 27.321428571428573, 33.655319920954135 28.125, 32.88691421336951 28.928571428571427, 32.447216680903296 29.732142857142858, 30.225266592271403 30.535714285714285, 31.008076163727317 31.339285714285715, 31.16083610325444 32.14285714285714, 31.808355715865687 32.94642857142857, 33.29011046762499 33.75, 35.89258727510477 34.55357142857142, 40.70405943882229 35.35714285714286, 38.15483876066787 36.160714285714285, 38.5448961849235 36.964285714285715, 40.81206940465079 37.767857142857146, 41.90009660685907 38.57142857142857, 45.31884970851106 39.375, 45.791652679212994 40.17857142857143, 46.401985612209415 40.982142857142854, 44.87826502124301 41.785714285714285, 46.75152969052843 42.589285714285715, 46.55586580647253 43.392857142857146, 44.202826467451224 44.19642857142857, 50.0 45.0, 46.18906972526658 45.80357142857143, 44.82184380444189 46.607142857142854, 42.28943548616627 47.410714285714285, 42.68805839906847 48.214285714285715, 46.08177223158846 49.01785714285714, 44.54887465725243 49.82142857142858, 46.56350386246157 50.625, 44.5098884275751 51.42857142857142, 40.91753750426981 52.23214285714286, 36.83720487733144 53.035714285714285, 28.922511642038764 53.839285714285715, 27.03367257204728 54.642857142857146, 27.810574292049694 55.44642857142857, 33.299066685708965 56.25, 40.57649890260615 57.05357142857143, 41.03317343502199 57.857142857142854, 41.25144538518886 58.660714285714285, 37.74965117568991 59.464285714285715, 38.32112561642413 60.267857142857146, 38.90660239399437 61.07142857142857, 44.01322306994492 61.875, 42.72096173170232 62.67857142857143, 42.93087626277495 63.482142857142854, 39.2229729263485 64.28571428571428, 42.08762142183944 65.08928571428572, 42.341719701245864 65.89285714285714, 39.761149280782355 66.69642857142857, 37.968579141610284 67.5, 38.131783054515495 68.30357142857143, 37.424521791526274 69.10714285714285, 36.33010474000915 69.91071428571429, 38.38941764369002 70.71428571428572, 38.442139243353985 71.51785714285714, 39.07046836327248 72.32142857142857, 39.8746366371657 73.125, 40.04477461926644 73.92857142857143, 42.86342331214624 74.73214285714286, 43.535681212285795 75.53571428571429, 42.24574809504642 76.33928571428571, 41.28082699571288 77.14285714285714, 41.34086877092364 77.94642857142857, 41.33525880465055 78.75, 42.93394670350064 79.55357142857143, 43.02582215253181 80.35714285714286, 40.46057275929273 81.16071428571428, 40.14748627536227 81.96428571428571, 37.269770867178 82.76785714285715, 38.39154996997231 83.57142857142857, 38.20833529111968 84.375, 39.40779205356651 85.17857142857143, 37.76192566881274 85.98214285714285, 37.73324476533116 86.78571428571429, 36.52455295205683 87.58928571428572, 37.8101579027921 88.39285714285714, 38.30221079286943 89.19642857142857, 35.954132467472114 90.0, 35.43096495430215 90.80357142857143, 36.34242287233405 91.60714285714286, 38.059154068731466 92.41071428571429, 39.661895756381206 93.21428571428571, 38.964091710184746 94.01785714285714, 37.9503073837731 94.82142857142857, 39.553622432481156 95.625, 40.37125241152519 96.42857142857143, 39.14855819916191 97.23214285714286, 39.29970078429934 98.03571428571428, 40.38501513350876 98.83928571428571, 39.69535212267255 99.64285714285715, 38.64863811317953 100.44642857142857, 38.98146417695069 101.25, 39.994866684487874 102.05357142857143, 42.807272354868644 102.85714285714285, 41.94437974439298 103.66071428571429, 42.30648834619449 104.46428571428572, 40.48565479923997 105.26785714285714, 40.808414668403756 106.07142857142857, 39.62883973937351 106.875, 36.19453028144562 107.67857142857143, 35.94022022435021 108.48214285714286, 36.85503829494003 109.28571428571429, 36.820775476427684 110.08928571428571, 36.080822379361535 110.89285714285714, 34.87761027682068 111.69642857142857, 36.372467384426926 112.5, 39.925207278448575 113.30357142857143, 40.423655953321244 114.10714285714286, 39.88080389431008 114.91071428571428, 39.50288467321423 115.71428571428571, 40.332029983773914 116.51785714285715, 39.802773356249446 117.32142857142857, 38.65726805848371 118.125, 36.136748454356876 118.92857142857143, 35.780283032037154 119.73214285714285, 31.190562409141727 120.53571428571429, 30.72654959197952 121.33928571428572, 33.24485494265302 122.14285714285714, 33.08304937148373 122.94642857142857, 30.732922556299187 123.75, 30.59017109017441 124.55357142857143, 26.958339054326665 125.35714285714286, 27.13641538996509 126.16071428571429, 28.112933483112894 126.96428571428571, 25.83628014207806 127.76785714285714, 21.654518880817268 128.57142857142856, 18.59823514701702 129.375, 16.40027935049192 130.17857142857144, 16.730358693069093 130.98214285714286, 18.51371147948581 131.78571428571428, 23.383505545210458 132.5892857142857, 22.12749553064146 133.39285714285714, 21.603872105016087 134.19642857142858, 20.137447548907204" fill="none" stroke="#ed5565" stroke-width="1.25"/>

</svg>