<?xml version="1.0" standalone="no"?>
<!DOCTYPE svg PUBLIC "-//W3C//DTD SVG 1.1//EN" "http://www.w3.org/Graphics/SVG/1.1/DTD/svg11.dtd">

<svg width="135" height="50" viewBox="0 0 135 50" 
  xmlns="http://www.w3.org/2000/svg"
  xmlns:xlink="http://www.w3.org/1999/xlink">


<polyline points="0.0, 3.91396403632167 0.8035714285714285, 2.7451028339019308 1.607142857142857, 0.0 2.4107142857142856, 0.8977139115336501 3.214285714285714, 0.16815787016997755 4.017857142857142, 0.0986874239648044 4.821428571428571, 2.4311173074675665 5.625, 1.9077670669441362 6.428571428571428, 14.33612600830865 7.232142857142857, 15.345475385733277 8.035714285714285, 14.223263152674779 8.839285714285715, 14.212710173405885 9.642857142857142, 12.877015942333218 10.446428571428571, 15.359587450695223 11.25, 16.065637516630936 12.053571428571429, 15.001902758417659 12.857142857142856, 16.714743234729582 13.660714285714286, 16.993245101417266 14.464285714285714, 16.737819254671162 15.267857142857142, 16.608591831007605 16.07142857142857, 16.704617115558104 16.875, 15.805434019057435 17.67857142857143, 16.358043137824307 18.482142857142858, 18.12902685064569 19.285714285714285, 18.490960045734013 20.089285714285715, 17.447443160960237 20.892857142857142, 17.138118148677858 21.696428571428573, 18.98028532428844 22.5, 19.828702637796432 23.303571428571427, 21.5732647157112 24.107142857142858, 23.730547797467572 24.91071428571429, 24.2016460824307 25.71428571428571, 23.74758616909463 26.517857142857142, 23.35504096476045 27.321428571428573, 28.341555614248605 28.125, 26.927291649814812 28.928571428571427, 27.37890998423912 29.732142857142858, 26.662454200407172 30.535714285714285, 24.473160168726526 31.339285714285715, 23.25458667601804 32.14285714285714, 23.62255456683749 32.94642857142857, 24.107904140428374 33.75, 26.663473060227766 34.55357142857142, 27.391728388883486 35.35714285714286, 26.812263196646853 36.160714285714285, 27.72538226924895 36.964285714285715, 27.99372243556291 37.767857142857146, 28.547251063370364 38.57142857142857, 31.565948020743107 39.375, 32.173785127949174 40.17857142857143, 38.95680628740311 40.982142857142854, 42.82738485322311 41.785714285714285, 45.10649467642577 42.589285714285715, 44.583516571142205 43.392857142857146, 43.410165446740265 44.19642857142857, 46.77314214829973 45.0, 50.0 45.80357142857143, 46.27568199312574 46.607142857142854, 43.02414047438722 47.410714285714285, 43.5128156565087 48.214285714285715, 44.832034572773054 49.01785714285714, 44.92864244906261 49.82142857142858, 45.57768878757831 50.625, 47.077173858908125 51.42857142857142, 44.56979019555925 52.23214285714286, 47.1639478120555 53.035714285714285, 33.065950158441694 53.839285714285715, 30.01414350372511 54.642857142857146, 28.880348389057968 55.44642857142857, 29.16455340697886 56.25, 33.39164342421713 57.05357142857143, 33.09778318692456 57.857142857142854, 32.696987848333535 58.660714285714285, 31.316917428888036 59.464285714285715, 32.86706019283235 60.267857142857146, 32.90015257604923 61.07142857142857, 34.26740505810461 61.875, 34.744127826086455 62.67857142857143, 34.66736208020006 63.482142857142854, 32.74972777044857 64.28571428571428, 34.65950960814449 65.08928571428572, 33.90479125356177 65.89285714285714, 34.879604177334755 66.69642857142857, 35.029723647682566 67.5, 34.432677549020305 68.30357142857143, 35.5554457524578 69.10714285714285, 34.493961425319306 69.91071428571429, 34.19537314122778 70.71428571428572, 36.225523074852475 71.51785714285714, 36.95836756979305 72.32142857142857, 35.11079681795566 73.125, 36.557019603911826 73.92857142857143, 39.601764304473804 74.73214285714286, 41.23390412427682 75.53571428571429, 39.90918293356332 76.33928571428571, 40.02245705336743 77.14285714285714, 41.00175990857517 77.94642857142857, 42.55402896689977 78.75, 43.20452393126084 79.55357142857143, 44.44723838835852 80.35714285714286, 43.36949802184317 81.16071428571428, 42.59923566162659 81.96428571428571, 42.36431033362602 82.76785714285715, 43.09749519608952 83.57142857142857, 42.739037630886166 84.375, 43.57507680770901 85.17857142857143, 43.10557836820762 85.98214285714285, 44.214655265332006 86.78571428571429, 43.97020890043252 87.58928571428572, 43.74551886208275 88.39285714285714, 44.94414877027986 89.19642857142857, 43.11346656660385 90.0, 42.952415208241895 90.80357142857143, 43.036395088978196 91.60714285714286, 42.66331451730216 92.41071428571429, 43.03594002076024 93.21428571428571, 43.90634103185629 94.01785714285714, 42.36238909672315 94.82142857142857, 40.77171850961096 95.625, 42.003797383871586 96.42857142857143, 42.477275700680615 97.23214285714286, 42.5413055271259 98.03571428571428, 43.220547850880244 98.83928571428571, 43.47692430071927 99.64285714285715, 43.981153017170676 100.44642857142857, 42.5816895108755 101.25, 42.426340673071564 102.05357142857143, 42.30099111078727 102.85714285714285, 42.36837328296991 103.66071428571429, 44.4021405131773 104.46428571428572, 44.91277268189915 105.26785714285714, 44.54361795265598 106.07142857142857, 43.54091757924276 106.875, 41.64283445236946 107.67857142857143, 41.20264959889811 108.48214285714286, 39.65972961926737 109.28571428571429, 39.716403212813034 110.08928571428571, 40.06475545902247 110.89285714285714, 39.375344955191885 111.69642857142857, 39.541300977822424 112.5, 38.81512573337832 113.30357142857143, 39.50758932698245 114.10714285714286, 40.24229200173179 114.91071428571428, 40.57269750082864 115.71428571428571, 39.431686149505246 116.51785714285715, 39.87856207616386 117.32142857142857, 40.59265181882503 118.125, 40.66889693428536 118.92857142857143, 40.36869063928471 119.73214285714285, 39.802525510780505 120.53571428571429, 38.99707997010528 121.33928571428572, 39.17817037428772 122.14285714285714, 42.8403628116432 122.94642857142857, 36.42874006878731 123.75, 35.80245268386576 124.55357142857143, 32.753676003347664 125.35714285714286, 32.598195427165514 126.16071428571429, 33.30188194250452 126.96428571428571, 30.417478452765174 127.76785714285714, 29.995182890465504 128.57142857142856, 27.027038950321803 129.375, 27.12332014544634 130.17857142857144, 27.03614378520228 130.98214285714286, 24.98033528466083 131.78571428571428, 24.592267432300936 132.5892857142857, 23.64910904868804 133.39285714285714, 24.261595566716345 134.19642857142858, 21.40512036326415" fill="none" stroke="#ed5565" stroke-width="1.25"/>

</svg>